<?xml version="1.0" encoding="utf-8"?>
<!-- Generator: Adobe Illustrator 16.0.0, SVG Export Plug-In . SVG Version: 6.00 Build 0)  -->
<!DOCTYPE svg PUBLIC "-//W3C//DTD SVG 1.1//EN" "http://www.w3.org/Graphics/SVG/1.1/DTD/svg11.dtd">
<svg version="1.1" id="레이어_1" xmlns="http://www.w3.org/2000/svg" xmlns:xlink="http://www.w3.org/1999/xlink" x="0px"
	 y="0px" width="100.167px" height="100px" viewBox="149.917 0 100.167 100" enable-background="new 149.917 0 100.167 100"
	 xml:space="preserve">
<g>
	<circle fill="#FFEB3B" cx="200" cy="50" r="50.084"/>
	<g>
		<g>
			<polygon fill="#3E2723" points="191.582,52.134 195.185,52.134 195.185,52.134 193.383,47.015 			"/>
			<path fill="#3E2723" d="M200,25.22c-17.275,0-31.278,11.041-31.278,24.662c0,8.807,5.856,16.542,14.662,20.896
				c-0.478,1.65-3.08,10.628-3.182,11.336c0,0-0.063,0.529,0.28,0.73c0.231,0.116,0.501,0.134,0.745,0.046
				c0.987-0.139,11.429-7.462,13.233-8.724c1.835,0.257,3.687,0.382,5.54,0.377c17.275,0,31.278-11.041,31.278-24.662
				S217.275,25.22,200,25.22z M184.52,46.053c-0.039,3.489,0.03,7.159-0.027,10.593c-0.019,1.097-0.649,1.425-1.504,1.738
				c-0.096,0.034-0.2,0.041-0.301,0.021c-0.977-0.192-1.756-0.542-1.779-1.757c-0.07-3.432,0.021-7.107-0.028-10.596
				c-0.826-0.033-2.006,0.034-2.773,0c-1.064-0.069-1.805-0.746-1.759-1.752c0.044-1.008,0.583-1.733,1.778-1.751
				c2.82-0.042,6.315-0.042,9.137,0c1.202,0.018,1.738,0.746,1.774,1.751c0.036,1.003-0.691,1.684-1.753,1.752
				C186.526,46.087,185.351,46.02,184.52,46.053z M199.678,58.219c-0.361,0.164-0.752,0.25-1.149,0.25
				c-0.752,0-1.326-0.301-1.504-0.797l-0.902-2.34h-5.491l-0.902,2.34c-0.174,0.49-0.749,0.797-1.504,0.797
				c-0.396,0-0.787-0.085-1.146-0.25c-0.499-0.228-0.978-0.859-0.43-2.563l4.328-11.362c0.371-1.023,1.319-1.725,2.406-1.78
				c1.086,0.061,2.031,0.762,2.406,1.783l4.313,11.358C200.653,57.359,200.175,58.003,199.678,58.219z M208.797,58.219h-5.789
				c-0.934,0.018-1.706-0.72-1.729-1.652V44.318c0.042-1.018,0.898-1.81,1.917-1.769c0.96,0.039,1.729,0.809,1.768,1.769V54.92
				h3.834c0.915-0.055,1.699,0.641,1.754,1.555c0.056,0.913-0.64,1.698-1.554,1.754c-0.066,0.004-0.134,0.004-0.2,0V58.219z
				 M222.932,56.859c-0.13,0.988-1.036,1.684-2.023,1.554c-0.483-0.064-0.92-0.32-1.212-0.712l-4.231-5.602l-0.625,0.625v3.937
				c0,0.997-0.809,1.806-1.806,1.806c-0.996,0-1.804-0.809-1.804-1.806V44.33c0-0.997,0.808-1.805,1.804-1.805
				c0.997,0,1.806,0.808,1.806,1.805v3.868l5.034-5.035c0.266-0.263,0.627-0.409,1.001-0.403c0.933,0.025,1.698,0.749,1.774,1.678
				c0.032,0.406-0.109,0.805-0.393,1.098l-4.121,4.111l4.442,5.886c0.286,0.382,0.411,0.862,0.346,1.335L222.932,56.859z"/>
		</g>
	</g>
</g>
<image overflow="visible" width="1200" height="630" xlink:href="7D1CE400.jpg"  transform="matrix(0.2389 0 0 0.2389 -385 -250)">
</image>
</svg>
