<svg id="그룹_11" data-name="그룹 11" xmlns="http://www.w3.org/2000/svg" width="18.557" height="21.635" viewBox="0 0 18.557 21.635">
  <path id="패스_276" data-name="패스 276" d="M18.558,68.588a15.594,15.594,0,0,1-1.4,2.624c-.912,1.39-2.2,3.12-3.786,3.135-1.415.013-1.777-.922-3.7-.912s-2.319.928-3.734.915c-1.591-.015-2.808-1.578-3.719-2.967C-.329,67.5-.6,62.938.976,60.514a5.637,5.637,0,0,1,4.535-2.732c1.687,0,2.747.926,4.142.926,1.353,0,2.177-.928,4.127-.928a5.5,5.5,0,0,1,4.149,2.195A4.76,4.76,0,0,0,18.558,68.588Z" transform="translate(-0.001 -52.716)" fill="#18242b"/>
  <g id="그룹_10" data-name="그룹 10" transform="translate(8.92)">
    <path id="패스_277" data-name="패스 277" d="M105.34,3.513A4.752,4.752,0,0,0,106.391,0a5.112,5.112,0,0,0-3.3,1.779,4.406,4.406,0,0,0-1.079,3.426A4.316,4.316,0,0,0,105.34,3.513Z" transform="translate(-101.96)" fill="#18242b"/>
  </g>
</svg>
