
<svg version="1.1" xmlns="http://www.w3.org/2000/svg" xmlns:xlink="http://www.w3.org/1999/xlink" x="0px" y="0px"
	 viewBox="0 0 611.84 152.47" style="enable-background:new 0 0 611.84 152.47;" xml:space="preserve">
<style type="text/css">
	.st0{opacity:0.7;}
	.st1{fill:#fff;stroke-dasharray: 740; stroke-dashoffset: 740; animation: animate 10s cubic-bezier(.74,.01,.32,.99) infinite;}
	.st2{fill:#FFFFFF;}
	#blank{
		opacity:0;
		animation: show 10s linear infinite;
		
	}


	@keyframes animate {
	0%{
	stroke-dashoffset: 740;
	}
	20%{
	stroke-dashoffset: 1480;
	}
	70%{
	stroke-dashoffset: 1480;
	}
	
	90%{
	stroke-dashoffset: 740;

	}
  100% {
    stroke-dashoffset: 740;
  }
  }

  @keyframes show {
  0% {
    opacity:0;
  	}
  	15% {
    opacity:0;
  	}
  	20% {
    opacity:1;
  	}
  	70% {
    opacity:1;
  	}
  80% {
    opacity:0;
  	}
  100% {
    opacity:0;
  	}
}

</style>
<g id="bg">
	<rect width="611.84" height="152.47"/>
</g>
<g id="path">
	<g class="st0">
		<rect stroke-width="4" stroke="#fff" fill-opacity="0" stroke-linecap="round" x="25.75" y="23.35" class="st1" width="264" height="106"/>
		<!-- <path class="st2" d="M287.75,25.35v102h-260v-102H287.75 M291.75,21.35h-268v110h268V21.35L291.75,21.35z"/> -->
	</g>
</g>
<g id="blank">
	<g id="blank">
		<path class="st2" d="M68.49,80.4H58.6v17.49h10.15c6.45,0,10.41-2.85,10.41-8.79C79.15,82.82,75.45,80.4,68.49,80.4z"/>
		<path class="st2" d="M77.34,62.75c0-5.93-3.87-7.94-9.89-7.94H58.6v15.97h8.34C72.61,70.77,77.34,69.02,77.34,62.75z"/>
		<path class="st2" d="M23.75,21.35v110h268v-110H23.75z M70.81,107.52H46.04V45.17h23.48c14.1,0,20.29,5.94,20.29,15.74
			c0,6.28-2.21,11.18-9.44,13.59v0.34c7.65,1.63,12.02,6.11,12.02,14.79C92.39,100.04,85.43,107.52,70.81,107.52z M115.91,107.52
			h-12.56V45.17h12.56V107.52z M163.75,107.52H153l-1.12-3.27h-0.86c-2.58,2.58-7.14,4.21-11.27,4.21c-8.34,0-14.79-4.13-14.79-13.5
			c0-8.95,6.79-13.33,16.51-14.45l10.06-1.2v-2.58c0-5.76-2.15-7.31-9.29-7.31c-2.49,0-5.82,0.5-8.6,1.04l-6.27-7.47
			c4.49-1.78,11.69-3.28,18.65-3.28c11.18,0,17.72,4.47,17.72,14.45V107.52z M216.24,107.52h-12.21v-30.1c0-5.16-3.01-7.4-8-7.4
			c-3.1,0-7.14,1.12-9.2,2.32v35.17h-12.04V60.57h11.87v4.3h0.26c3.61-3.1,9.03-5.16,14.28-5.16c8.86,0,15.05,3.87,15.05,13.42
			V107.52z M257.57,107.65l-14.15-16.79l-3.71,4.43v12.11h-12V45.17h12v32.87l14.11-16.9h14.47l-17.67,21.11l21.42,25.4H257.57z"/>
		<path class="st2" d="M137.01,94.28c0,4.21,2.67,5.76,6.28,5.76c2.58,0,6.62-1.12,8.26-2.58v-10.4L141.91,88
			C139.41,88.17,137.01,89.98,137.01,94.28z"/>
	</g>
</g>
<g id="option">
	<g>
		<path class="st2" d="M309.1,84.39c0-15.91,11.78-24.77,23.56-24.77c12.64,0,23.39,8.69,23.39,24.25
			c0,15.91-11.87,24.68-23.48,24.68C319.5,108.55,309.1,99.7,309.1,84.39z M342.98,84.39c0-12.73-5.68-15.39-10.58-15.39
			c-5.33,0-10.49,4.47-10.49,14.88c0,12.64,5.76,15.48,10.83,15.48C337.9,99.35,342.98,94.88,342.98,84.39z"/>
		<path class="st2" d="M363.62,60.57h11.78v3.78h0.09c3.27-3.01,7.48-4.64,12.9-4.64c8.6,0,19.52,5.68,19.52,23.48
			c0,18.49-11.27,25.28-21.76,25.28c-4.9,0-8.34-1.12-10.41-2.32v22.67h-12.13V60.57z M395.27,84.39c0-11.27-3.96-14.62-10.58-14.62
			c-3.7,0-7.14,1.12-8.94,2.24v24.85c1.63,1.46,5.07,2.49,8.6,2.49C390.71,99.35,395.27,95.83,395.27,84.39z"/>
		<path class="st2" d="M455.17,42.68h12.47v10.83h-12.47V42.68z M455.26,60.65h12.3v46.87h-12.3V60.65z"/>
		<path class="st2" d="M475.81,84.39c0-15.91,11.78-24.77,23.56-24.77c12.64,0,23.39,8.69,23.39,24.25
			c0,15.91-11.87,24.68-23.48,24.68C486.22,108.55,475.81,99.7,475.81,84.39z M509.7,84.39c0-12.73-5.68-15.39-10.58-15.39
			c-5.33,0-10.49,4.47-10.49,14.88c0,12.64,5.76,15.48,10.84,15.48C504.62,99.35,509.7,94.88,509.7,84.39z"/>
		<path class="st2" d="M531,60.57h11.87v4.3h0.26c3.61-3.1,9.03-5.16,14.28-5.16c8.86,0,15.05,3.87,15.05,13.42v34.4h-12.21v-30.1
			c0-5.16-3.01-7.4-8-7.4c-3.1,0-7.14,1.12-9.2,2.32v35.17H531V60.57z"/>
		<path class="st2" d="M581.94,95.72h12.56v11.78h-12.56V95.72z"/>
		<g>
			<path class="st2" d="M440.15,98.32c-1.08,0.12-2.11,0.17-2.98,0.17c-4.3,0-5.68-1.29-5.68-4.99V70.03h12.47v-9.54H431.5V49.39
				h-12.12v11.09h-6.54v9.54h6.54v25.11c0,9.63,5.93,13.16,14.28,13.16c5.06,0,9.95-1.28,12.71-2.48L440.15,98.32z"/>
		</g>
	</g>
</g>
</svg>
