<?xml version="1.0" standalone="yes"?>
<svg width="200" height="200">
<path style="fill:#ffffff; stroke:none;" d="M0 0L0 200L200 200L200 0L0 0z"/>
<path style="fill:#ffd47f; stroke:none;" d="M10 96L11 96C12.1544 92.1457 13.9575 89.5722 17.0432 86.9352C29.8584 75.9836 41.9908 83.2781 53 92.5756C56.2453 95.3164 61.3807 101.411 66 101.252C69.7913 101.122 73.3222 96.859 76 94.5787C83.2952 88.3666 90.3673 81.7944 98 76C94.2488 68.5909 85.1713 63.2754 79 57.8449C64.1005 44.734 32.7914 5.87979 13.6528 33.0147C9.52558 38.8662 10 47.1823 10 54L10 96z"/>
<path style="fill:#ff85a6; stroke:none;" d="M165 23L165 24L171 24L165 23z"/>
<path style="fill:#ff1151; stroke:none;" d="M189 95C191.395 89.2927 190 81.154 190 75C190 58.8746 195.742 27.6904 173 24.213C155.866 21.593 143.802 36.6651 132 46.7284L109 66.2708C106.869 68.0988 101.357 71.4563 102.346 74.8696C103.53 78.9589 110.222 82.751 113.285 85.5131C117.584 89.389 128.741 103.011 135 101.694C139.049 100.843 142.969 96.0034 146 93.4213C156.853 84.1749 169.747 75.0367 182.981 86.3295C185.875 88.7989 187.631 91.5106 189 95z"/>
<path style="fill:#e40550; stroke:none;" d="M65 104C75.5696 110.108 87.0905 128.346 99 130.579C102.697 131.272 106.438 127.084 108.961 124.923C117.231 117.839 126.953 111.318 134 103L111.576 83.2554L101 75.3573L90 81.7292L65 104z"/>
<path style="fill:#ffb182; stroke:none;" d="M10 154L11 154C20.8007 131.718 51.4518 121.023 66 102C57.3952 96.3081 50.4832 87.4536 41 83.1852C30.0002 78.2341 14.4593 82.4575 10.7894 95.0039C5.77766 112.137 10 136.15 10 154z"/>
<path style="fill:#ff7b21; stroke:none;" d="M189 153C191.395 147.293 190 139.154 190 133C190 116.894 196.182 87.8878 176 81.8002C163.309 77.972 154.014 85.7407 145 93.4213C142.453 95.5915 135.233 99.8774 136.346 103.925C137.664 108.723 146.356 113.785 150 116.935C158.597 124.369 166.883 132.209 175.576 139.544C180.95 144.079 185.821 146.324 189 153z"/>
<path style="fill:#ff562d; stroke:none;" d="M100 131L100 133L133 162C147.608 152.337 156.583 136.395 176 140L145 111.729L133.285 104.404L122 113.05L100 131z"/>
<path style="fill:#c10349; stroke:none;" d="M22 141C31.8552 139.673 37.6693 138.438 46.1698 144.904C50.9397 148.532 59.6868 159.898 66 159.669C73.4992 159.397 86.393 143.993 91.9992 139.13C94.0052 137.391 97.7932 135.05 97.7932 132.025C97.7932 128.769 93.1783 126.072 91 124.246C85.0013 119.217 73.9806 105.537 66 104.792C61.4936 104.372 57.0879 109.791 54 112.421C43.6126 121.27 30.0897 130.009 22 141z"/>
<path style="fill:#fa3a15; stroke:none;" d="M99 132L66 160C79.667 188.049 119.667 188.355 133 160L99 132z"/>
<path style="fill:#940e4d; stroke:none;" d="M29 139.464C-1.39948 144.798 9.21806 186.665 38 181.775C45.6706 180.472 52.3056 172.715 57.9992 167.92C59.9652 166.264 63.7932 163.938 63.7932 161C63.7932 157.527 58.321 154.258 56 152.271C48.1734 145.569 40.1554 137.506 29 139.464z"/>
<path style="fill:#ffb800; stroke:none;" d="M134 162C141.828 167.803 149.24 176.271 158 180.547C185.375 193.909 204.924 145.878 173 139.38C169.585 138.684 165.359 138.668 162 139.638C157.014 141.077 152.854 144.694 149 148.001C143.87 152.402 138.111 156.624 134 162z"/>
<path style="fill:#d92404; stroke:none;" d="M65 161L40 181L40 182L92 182L92 181L65 161z"/>
<path style="fill:#ff9000; stroke:none;" d="M108 181L108 182L160 182C154.888 177.408 140.11 161.575 133 162.828C123.357 164.527 117.365 177.816 108 181z"/>
</svg>
