<svg xmlns="http://www.w3.org/2000/svg" xmlns:xlink="http://www.w3.org/1999/xlink" width="675" height="241" viewBox="0 0 675 241">
  <defs>
    <linearGradient id="linear-gradient" x1="0.5" x2="0.5" y2="1" gradientUnits="objectBoundingBox">
      <stop offset="0" stop-color="#57abff"/>
      <stop offset="1" stop-color="#1b72cb"/>
    </linearGradient>
    <linearGradient id="linear-gradient-2" x1="0.5" x2="0.5" y2="1" gradientUnits="objectBoundingBox">
      <stop offset="0" stop-color="#ffb300"/>
      <stop offset="1" stop-color="#ffc60a"/>
    </linearGradient>
    <clipPath id="clip-아트보드_1">
      <rect width="675" height="241"/>
    </clipPath>
  </defs>
  <g id="아트보드_1" data-name="아트보드 – 1" clip-path="url(#clip-아트보드_1)">
    <g id="그룹_151" data-name="그룹 151">
      <g id="그룹_85" data-name="그룹 85" transform="translate(-76 -67)">
        <g id="그룹_82" data-name="그룹 82">
          <path id="패스_5" data-name="패스 5" d="M0,0H24V24H0Z" transform="translate(101 263)" fill="url(#linear-gradient)"/>
          <text id="이자" transform="translate(129 281)" fill="#333" font-size="14" font-family="NotoSansCJKkr-Regular, Noto Sans CJK KR"><tspan x="0" y="0">이자</tspan></text>
        </g>
        <g id="그룹_83" data-name="그룹 83" transform="translate(-9 1)">
          <text id="원금" transform="translate(209 280)" fill="#333" font-size="14" font-family="NotoSansCJKkr-Regular, Noto Sans CJK KR"><tspan x="0" y="0">원금</tspan></text>
          <rect id="사각형_67" data-name="사각형 67" width="24" height="24" transform="translate(179 262)" fill="url(#linear-gradient-2)"/>
        </g>
      </g>
      <g id="그룹_84" data-name="그룹 84" transform="translate(-72 -38)">
        <rect id="사각형_44" data-name="사각형 44" width="24" height="158" transform="translate(101 60)" fill="url(#linear-gradient)"/>
        <rect id="사각형_45" data-name="사각형 45" width="24" height="158" transform="translate(155 60)" fill="url(#linear-gradient)"/>
        <rect id="사각형_46" data-name="사각형 46" width="24" height="120" transform="translate(263 98)" fill="url(#linear-gradient)"/>
        <rect id="사각형_47" data-name="사각형 47" width="24" height="132" transform="translate(209 86)" fill="url(#linear-gradient)"/>
        <rect id="사각형_48" data-name="사각형 48" width="24" height="106" transform="translate(317 112)" fill="url(#linear-gradient)"/>
        <rect id="사각형_49" data-name="사각형 49" width="24" height="96" transform="translate(371 122)" fill="url(#linear-gradient)"/>
        <rect id="사각형_50" data-name="사각형 50" width="24" height="80" transform="translate(424 138)" fill="url(#linear-gradient)"/>
        <rect id="사각형_51" data-name="사각형 51" width="24" height="67" transform="translate(478 151)" fill="url(#linear-gradient)"/>
        <rect id="사각형_52" data-name="사각형 52" width="24" height="54" transform="translate(532 164)" fill="url(#linear-gradient)"/>
        <rect id="사각형_53" data-name="사각형 53" width="24" height="41" transform="translate(586 177)" fill="url(#linear-gradient)"/>
        <rect id="사각형_54" data-name="사각형 54" width="24" height="28" transform="translate(640 190)" fill="url(#linear-gradient)"/>
        <rect id="사각형_55" data-name="사각형 55" width="24" height="15" transform="translate(694 203)" fill="url(#linear-gradient)"/>
        <text id="대출기간" transform="translate(692 249)" fill="#333" font-size="14" font-family="NotoSansCJKkr-Regular, Noto Sans CJK KR"><tspan x="-25.76" y="0">대출기간</tspan></text>
        <rect id="사각형_56" data-name="사각형 56" width="24" height="13" transform="translate(155 60)" fill="url(#linear-gradient-2)"/>
        <rect id="사각형_57" data-name="사각형 57" width="24" height="26" transform="translate(209 60)" fill="url(#linear-gradient-2)"/>
        <rect id="사각형_58" data-name="사각형 58" width="24" height="39" transform="translate(263 60)" fill="url(#linear-gradient-2)"/>
        <rect id="사각형_59" data-name="사각형 59" width="24" height="52" transform="translate(317 60)" fill="url(#linear-gradient-2)"/>
        <rect id="사각형_60" data-name="사각형 60" width="24" height="65" transform="translate(371 60)" fill="url(#linear-gradient-2)"/>
        <rect id="사각형_61" data-name="사각형 61" width="24" height="78" transform="translate(424 60)" fill="url(#linear-gradient-2)"/>
        <path id="패스_6" data-name="패스 6" d="M0,0H24V91H0V0Z" transform="translate(478 60)" opacity="0.98" fill="url(#linear-gradient-2)"/>
        <rect id="사각형_63" data-name="사각형 63" width="24" height="104" transform="translate(532 60)" fill="url(#linear-gradient-2)"/>
        <rect id="사각형_64" data-name="사각형 64" width="24" height="117" transform="translate(586 60)" fill="url(#linear-gradient-2)"/>
        <rect id="사각형_65" data-name="사각형 65" width="24" height="130" transform="translate(640 60)" fill="url(#linear-gradient-2)"/>
        <rect id="사각형_66" data-name="사각형 66" width="24" height="143" transform="translate(694 60)" fill="url(#linear-gradient-2)"/>
      </g>
    </g>
  </g>
</svg>
